Coordinates
version=1
nRows=17
nColumns=36
inDegrees=yes

Units are S.I. units (second, meters, Newtons, ...)
If the header above contains a line with 'inDegrees', this indicates whether rotational values are in degrees (yes) or radians (no).

endheader
time	pelvis_tilt	pelvis_list	pelvis_rotation	pelvis_tx	pelvis_ty	pelvis_tz	hip_flexion_r	hip_adduction_r	hip_rotation_r	knee_angle_r	knee_angle_r_beta	ankle_angle_r	subtalar_angle_r	mtp_angle_r	hip_flexion_l	hip_adduction_l	hip_rotation_l	knee_angle_l	knee_angle_l_beta	ankle_angle_l	subtalar_angle_l	mtp_angle_l	lumbar_extension	lumbar_bending	lumbar_rotation	arm_flex_r	arm_add_r	arm_rot_r	elbow_flex_r	pro_sup_r	arm_flex_l	arm_add_l	arm_rot_l	elbow_flex_l	pro_sup_l
      0.00000000	     -2.14337039	     -3.54805854	     11.13001612	      0.11871857	      0.93263413	     -0.17820824	     24.44415920	      4.45568748	     -4.94052852	      6.15748681	      0.10746842	    -10.85308308	    -14.20018965	     -5.47296798	    -11.57230442	     -4.23577432	     -4.94088359	     17.39402286	      0.30358297	     15.62744851	      2.66143149	     -5.47296798	     -2.69661384	      0.27854928	    -12.53922678	     -2.00897291	     -3.60290929	    -12.39756470	     37.21178018	     99.61358736	     22.35177471	     -8.13822336	     -2.36371852	     60.30990524	    103.08639642
      0.01000000	     -1.69176939	     -3.86281311	     11.21003523	      0.13127860	      0.93399604	     -0.17696914	     23.63947775	      5.12432630	     -4.83766260	      6.85856130	      0.11970448	    -10.96151171	    -15.22050796	     -5.50659737	    -11.11763829	     -5.11801943	     -4.79131924	     20.27408120	      0.35384947	     13.96764469	      1.99568421	     -5.50659737	     -3.15648081	      0.70962505	    -12.26642234	     -1.84648809	     -3.50616454	    -12.46387780	     36.57550616	     99.69919565	     21.83346296	     -7.87706911	     -2.06900590	     60.19259080	    103.26454608
      0.02000000	     -1.53116667	     -4.15502115	     11.25867256	      0.14369453	      0.93501605	     -0.17570980	     23.14554125	      5.74417418	     -4.35568529	      7.56521848	      0.13203797	    -11.43416529	    -16.93492330	     -5.61006525	    -10.32491602	     -5.78749965	     -4.01969414	     23.11207170	      0.40338175	     11.80470794	      0.32876091	     -5.61006525	     -3.26144598	      1.08847314	    -11.99576814	     -1.75398660	     -3.37967952	    -12.66091373	     35.91967901	     99.96663313	     21.19071522	     -7.68630614	     -1.78148838	     59.94497794	    103.73475938
      0.03000000	     -1.13512889	     -4.51003945	     11.29024148	      0.15615885	      0.93631711	     -0.17439720	     22.40038307	      6.46216336	     -4.30944417	      8.28038462	      0.14451998	    -11.01888958	    -17.49827117	     -5.62969314	     -9.61804368	     -6.69974843	     -3.80607967	     26.19652822	      0.45721567	      9.96038300	     -0.12168997	     -5.62969314	     -3.63277216	      1.56838999	    -11.64897052	     -1.61345972	     -3.29330301	    -12.77579061	     35.41044909	     99.96658489	     20.59471588	     -7.41323829	     -1.49961488	     59.71982278	    103.82168878
      0.04000000	     -0.93673027	     -4.92459691	     11.28221632	      0.16839216	      0.93740363	     -0.17299243	     21.92856200	      7.21106768	     -4.25150950	      9.09081975	      0.15866474	    -10.54837252	    -18.16126847	     -5.65531445	     -8.46302926	     -7.61319961	     -3.44785043	     29.53750995	      0.51552680	      7.56135727	     -1.05458569	     -5.65531445	     -3.76674723	      2.09232459	    -11.26178527	     -1.42964217	     -3.19637735	    -12.93077445	     34.78285239	     99.95383482	     19.94687774	     -7.21668549	     -1.10895755	     59.27847391	    103.93588829
      0.05000000	     -0.80296724	     -5.15836339	     11.19102826	      0.18022504	      0.93851488	     -0.17157819	     21.52522164	      7.77068923	     -4.08755888	      9.98261463	      0.17422949	    -10.05873274	    -18.79335316	     -5.73965188	     -7.12055499	     -8.14329211	     -2.63223683	     32.95192669	      0.57511962	      4.25752874	     -3.25103693	     -5.73965188	     -3.91852294	      2.37918727	    -10.68282032	     -1.24191603	     -3.09507789	    -13.06969416	     34.18965568	     99.98537764	     19.45069547	     -7.01090788	     -0.55415203	     58.54826146	    104.34000468
      0.06000000	     -0.46069815	     -5.56790795	     11.05916881	      0.19209650	      0.93981603	     -0.17002839	     20.77361466	      8.58732338	     -4.00947189	     10.56242782	      0.18434914	     -9.31931505	    -19.14980342	     -5.76147660	     -5.76951196	     -9.11337979	     -2.47578740	     36.66346439	      0.63989817	      1.66920816	     -3.61161682	     -5.76147660	     -4.30259213	      2.92883609	    -10.08953410	     -0.97525422	     -3.04475224	    -13.08873665	     33.71945019	     99.95909467	     18.84511786	     -6.76635556	     -0.24026266	     57.97887816	    104.43062994
      0.07000000	     -0.29394587	     -5.95632774	     10.90106718	      0.20361141	      0.94078616	     -0.16854342	     20.20915364	      9.32470045	     -3.97467237	     11.13110133	      0.19427437	     -8.46729639	    -19.38785535	     -5.78720804	     -4.03649925	     -9.95690124	     -2.13007422	     40.53389955	      0.70745001	     -1.33075398	     -4.48594545	     -5.78720804	     -4.42322131	      3.39502276	     -9.45023793	     -0.70203593	     -3.04472317	    -13.03354722	     33.25653963	     99.92970083	     18.24997455	     -6.48088499	      0.24664815	     57.11363000	    104.55040497
      0.08000000	     -0.19226316	     -6.12531879	     10.66535949	      0.21475010	      0.94178649	     -0.16710705	     19.69837037	      9.79630243	     -4.04426719	     11.76209847	      0.20528735	     -7.38976889	    -19.05912306	     -5.86525713	     -2.24614403	    -10.36151289	     -1.52754023	     44.20626623	      0.77154490	     -4.69470713	     -6.40795607	     -5.86525713	     -4.64003477	      3.60178014	     -8.61168848	     -0.48215079	     -3.08857786	    -12.81002234	     32.90397653	     99.88422423	     17.85768540	     -6.32553426	      0.98382019	     55.87213340	    104.98892445
      0.09000000	     -0.10279330	     -6.44448541	     10.42677921	      0.22577434	      0.94259755	     -0.16559094	     19.08964800	     10.44341562	     -4.04483389	     12.07687371	      0.21078121	     -6.49964049	    -18.95348766	     -5.90677711	     -0.29961810	    -11.02636978	     -1.11900583	     47.98009712	      0.83741067	     -6.88929752	     -6.94042853	     -5.90677711	     -4.76587778	      3.95245867	     -7.85261136	     -0.20153021	     -3.14171005	    -12.54594720	     32.63579732	     99.87477958	     17.31524548	     -6.08190914	      1.40659944	     54.76945041	    105.17691651
      0.10000000	      0.14954831	     -6.73349535	     10.20362521	      0.23663147	      0.94362279	     -0.16424174	     18.19198483	     11.08809810	     -3.96625826	     12.17836884	      0.21255263	     -5.61938844	    -18.97131085	     -5.92584370	      1.45029382	    -11.64556574	     -0.73346941	     51.53821505	      0.89951154	     -8.31981847	     -7.26278421	     -5.92584370	     -5.14986566	      4.34919733	     -7.07707924	      0.14301999	     -3.26381780	    -12.28409594	     32.44130656	     99.89198131	     16.72257223	     -5.84384319	      1.70539042	     53.81035767	    105.23315755
      0.11000000	      0.16737483	     -6.94379432	      9.97870084	      0.24723533	      0.94437543	     -0.16294191	     17.53790612	     11.57414556	     -3.96182418	     12.27332003	      0.21420984	     -4.76497049	    -18.78965986	     -5.94734634	      3.49725064	    -12.04732384	     -0.25143673	     54.97215955	      0.95944518	     -9.10076423	     -7.87418356	     -5.94734634	     -5.22438714	      4.58560306	     -6.34386512	      0.46601025	     -3.36489877	    -11.78568871	     32.29593264	     99.96221257	     16.18381039	     -5.62336673	      2.12693424	     52.44995155	    105.28237792
      0.12000000	      0.15337884	     -7.07984513	      9.81850156	      0.25758431	      0.94515754	     -0.16186039	     16.89725203	     11.94070464	     -3.95780145	     12.34684100	      0.21549303	     -3.90192943	    -18.47558607	     -5.97129511	      5.58826884	    -12.28396814	      0.27379586	     58.17745966	      1.01538822	     -9.10424880	     -8.54764318	     -5.97129511	     -5.29748564	      4.73965674	     -5.62747793	      0.76918188	     -3.57639306	    -11.10196242	     32.14925188	    100.08952207	     15.68552744	     -5.42731477	      2.59141515	     50.90352609	    105.33100877
      0.13000000	      0.13113196	     -7.15156273	      9.65555117	      0.26783624	      0.94603884	     -0.16082768	     16.21645516	     12.23256513	     -3.94059047	     12.34644840	      0.21548618	     -3.06560291	    -18.08000947	     -5.99758645	      7.64681383	    -12.37095653	      0.80486139	     61.10454533	      1.06647550	     -8.45759433	     -9.17408662	     -5.99758645	     -5.36111947	      4.82685258	     -4.92807758	      1.11919036	     -3.77541717	    -10.23206924	     32.00985973	    100.28129399	     15.18232604	     -5.23451058	      3.03684409	     49.23211222	    105.37093157
      0.14000000	      0.11647385	     -7.17518682	      9.51886792	      0.27803452	      0.94706460	     -0.15991268	     15.45488470	     12.46768045	     -3.87325138	     12.23426605	      0.21352822	     -2.27711620	    -17.68760186	     -6.02480874	      9.66687933	    -12.35113467	      1.30305443	     63.72932893	      1.11228662	     -7.41914246	     -9.79565177	     -6.02480874	     -5.41899511	      4.83916831	     -4.27309706	      1.49531600	     -4.01402438	     -9.24135246	     31.85134888	    100.52050984	     14.64126236	     -5.05345835	      3.39095157	     47.46386581	    105.38394558
      0.15000000	      0.18992590	     -7.14220564	      9.43071978	      0.28813820	      0.94833644	     -0.15912693	     14.50968888	     12.67294337	     -3.60885519	     11.96674210	      0.20885905	     -1.63147431	    -17.45120654	     -6.04157098	     11.52988063	    -12.17091570	      1.86504932	     65.98640284	      1.15167999	     -6.37842432	    -10.57651902	     -6.04157098	     -5.64639564	      4.83314066	     -3.67785760	      1.93697275	     -4.18127572	     -8.48409497	     31.74654224	    100.69640580	     14.01831644	     -4.88594152	      3.50788496	     45.87780516	    105.32719424
      0.16000000	      0.28321063	     -6.95804541	      9.27605777	      0.29823991	      0.94984102	     -0.15831394	     13.49456897	     12.72338200	     -3.36132452	     11.67450663	      0.20375858	     -1.18934306	    -17.26596023	     -6.05176907	     13.25310216	    -11.82258666	      2.21046568	     67.83605676	      1.18396254	     -5.60192833	    -11.25607283	     -6.05176907	     -5.93115501	      4.61872057	     -3.08064457	      2.40918569	     -4.25480021	     -7.85474428	     31.71529225	    100.82809222	     13.30840150	     -4.77566915	      3.51161164	     44.41436231	    105.23616231
